# File created by Blade
# Date/Time:  Thu Jan 22 18:25:10 2015
# Frame Rate: 120.000 fps
#------------------------------------------------------
:FULLY-SPECIFIED
:DEGREES
1777
root -3.275586 33.144225 -0.564161 8.217987 -4.635589 2.555209
RightUpLeg -3.996211 -3.290266 -1.345300
RightLeg 2.945013 -0.000000 -0.000000
RightFoot -12.533516 -3.010252 2.133649
RightToeBase 5.715249 -0.000000 -0.000000
LeftUpLeg -2.875387 5.154051 1.023444
LeftLeg 3.499916 -0.000000 -0.000000
LeftFoot -11.668134 3.519502 -10.185582
LeftToeBase 8.522808 -0.000000 -0.000000
Spine -7.540951 -3.041829 -3.023040
RightShoulder 2.890148 32.489165 -39.889686
RightArm 88.584921 -24.959115 63.341919
RightForeArm -2.280159 -0.000000 64.882778
RightHand 9.499664 -0.000000 -10.159806
RightHandThumb1 -24.326973 -0.000000 -32.862282
LeftShoulder -0.363987 -17.252738 24.462746
LeftArm 40.941619 38.832917 -91.024567
LeftForeArm -48.043579 -0.000000 87.361383
LeftHand 1.299500 -0.000000 -14.985785
LeftHandThumb1 -26.253704 0.000000 33.147579
Head -16.338557 5.442052 3.749479
1778
root -3.280119 33.144509 -0.554938 8.195245 -4.609703 2.549960
RightUpLeg -3.925025 -3.308314 -1.336168
RightLeg 2.891405 -0.000000 -0.000000
RightFoot -12.507726 -2.991796 2.158570
RightToeBase 5.692806 -0.000000 -0.000000
LeftUpLeg -2.851170 5.130882 1.040346
LeftLeg 3.526239 -0.000000 -0.000000
LeftFoot -11.678893 3.520276 -10.165678
LeftToeBase 8.506051 -0.000000 -0.000000
Spine -7.604487 -2.985952 -2.982874
RightShoulder 3.164173 32.884958 -39.962234
RightArm 89.292086 -25.040695 62.596602
RightForeArm -2.120590 -0.000000 65.317674
RightHand 9.651164 -0.000000 -9.766467
RightHandThumb1 -24.326973 -0.000000 -32.862282
LeftShoulder -0.305121 -17.234668 24.408396
LeftArm 40.582613 38.473168 -91.313615
LeftForeArm -48.798508 0.000000 88.252359
LeftHand 1.647863 -0.000000 -15.662828
LeftHandThumb1 -26.253704 0.000000 33.147579
Head -16.144921 5.353273 3.699147
1779
root -3.285737 33.145138 -0.546801 8.171325 -4.571696 2.543514
RightUpLeg -3.859588 -3.339883 -1.319241
RightLeg 2.850693 -0.000000 -0.000000
RightFoot -12.494962 -2.994100 2.156066
RightToeBase 5.744359 -0.000000 -0.000000
LeftUpLeg -2.828262 5.114896 1.062080
LeftLeg 3.546653 -0.000000 -0.000000
LeftFoot -11.671889 3.493474 -10.199217
LeftToeBase 8.428524 -0.000000 -0.000000
Spine -7.662054 -2.913413 -2.956112
RightShoulder 3.377786 33.488943 -40.088373
RightArm 89.542737 -25.325958 62.191945
RightForeArm -2.154910 -0.000000 65.833389
RightHand 9.683332 -0.000000 -9.306793
RightHandThumb1 -24.326973 -0.000000 -32.862282
LeftShoulder -0.253200 -17.182996 24.340115
LeftArm 40.299192 38.090624 -91.530156
LeftForeArm -49.678525 0.000000 89.069256
LeftHand 1.846514 0.000000 -16.048679
LeftHandThumb1 -26.253704 0.000000 33.147579
Head -15.965203 5.241377 3.660549
1780
root -3.289633 33.146611 -0.538400 8.151083 -4.515089 2.534599
RightUpLeg -3.791174 -3.391530 -1.301274
RightLeg 2.800808 -0.000000 -0.000000
RightFoot -12.465263 -2.988123 2.160537
RightToeBase 5.715096 -0.000000 -0.000000
LeftUpLeg -2.813512 5.091697 1.083212
LeftLeg 3.571704 -0.000000 -0.000000
LeftFoot -11.692796 3.495617 -10.159460
LeftToeBase 8.516287 -0.000000 -0.000000
Spine -7.728950 -2.828111 -2.922820
RightShoulder 3.666165 33.718748 -40.123425
RightArm 90.112546 -25.425875 61.626404
RightForeArm -2.471114 -0.000000 66.261970
RightHand 9.813764 -0.000000 -9.255717
RightHandThumb1 -24.326973 -0.000000 -32.862282
LeftShoulder -0.200206 -17.124083 24.249323
LeftArm 40.025087 37.697531 -91.721185
LeftForeArm -50.692374 -0.000000 89.788849
LeftHand 2.036631 0.000000 -16.676557
LeftHandThumb1 -26.253704 0.000000 33.147579
Head -15.774974 5.101588 3.614383
1781
root -3.292901 33.147846 -0.531586 8.115961 -4.434532 2.537880
RightUpLeg -3.718536 -3.438401 -1.293698
RightLeg 2.777380 -0.000000 -0.000000
RightFoot -12.458389 -3.015403 2.155599
RightToeBase 5.686171 -0.000000 -0.000000
LeftUpLeg -2.800862 5.062068 1.093930
LeftLeg 3.611908 -0.000000 -0.000000
LeftFoot -11.672356 3.451791 -10.204356
LeftToeBase 8.429483 -0.000000 -0.000000
Spine -7.773471 -2.686243 -2.939555
RightShoulder 3.908726 33.966715 -40.124871
RightArm 90.592535 -25.553663 61.096136
RightForeArm -2.588601 -0.000000 66.668730
RightHand 10.016052 -0.000000 -8.696281
RightHandThumb1 -24.326973 -0.000000 -32.862282
LeftShoulder -0.080170 -17.097523 24.178448
LeftArm 39.734641 37.329073 -91.880360
LeftForeArm -51.337998 0.000000 90.582082
LeftHand 2.174878 -0.000000 -16.969009
LeftHandThumb1 -26.253704 0.000000 33.147579
Head -15.575455 4.762421 3.633022
1782
root -3.301670 33.148105 -0.523005 8.127483 -4.351727 2.545653
RightUpLeg -3.679935 -3.465142 -1.278805
RightLeg 2.735280 -0.000000 -0.000000
RightFoot -12.460088 -3.064029 2.164969
RightToeBase 5.722034 -0.000000 -0.000000
LeftUpLeg -2.821973 5.053769 1.109331
LeftLeg 3.635649 -0.000000 -0.000000
LeftFoot -11.671173 3.401760 -10.149640
LeftToeBase 8.525366 -0.000000 -0.000000
Spine -7.838709 -3.340580 -2.737094
RightShoulder 4.789746 34.948228 -40.042174
RightArm 90.870859 -25.837533 60.827677
RightForeArm -2.711835 -0.000000 67.021596
RightHand 10.040739 0.000000 -8.577679
RightHandThumb1 -24.326973 -0.000000 -32.862282
LeftShoulder -0.882952 -16.788841 24.205221
LeftArm 39.385928 37.007922 -91.894850
LeftForeArm -52.097222 -0.000000 91.533525
LeftHand 2.167651 -0.000000 -16.997435
LeftHandThumb1 -26.253704 0.000000 33.147579
Head -15.511496 5.252318 3.292592
1783
root -3.307216 33.150062 -0.513035 8.095515 -4.257560 2.530434
RightUpLeg -3.595848 -3.532965 -1.248670
RightLeg 2.698714 -0.000000 -0.000000
RightFoot -12.432716 -3.071624 2.170841
RightToeBase 5.677766 -0.000000 -0.000000
LeftUpLeg -2.793571 5.013358 1.145672
LeftLeg 3.650705 -0.000000 -0.000000
LeftFoot -11.662448 3.360560 -10.143994
LeftToeBase 8.517938 -0.000000 -0.000000
Spine -7.901886 -3.438401 -2.629557
RightShoulder 5.197556 35.349048 -40.080821
RightArm 91.242148 -26.108120 60.428220
RightForeArm -2.873311 -0.000000 67.370059
RightHand 10.028622 -0.000000 -8.658446
RightHandThumb1 -24.326973 -0.000000 -32.862282
LeftShoulder -1.031510 -16.653217 24.075417
LeftArm 39.064876 36.663886 -91.894248
LeftForeArm -52.633224 0.000000 92.415034
LeftHand 2.425429 -0.000000 -16.975562
LeftHandThumb1 -26.253704 0.000000 33.147579
Head -15.328502 5.350649 3.133727
1784
root -3.310025 33.152539 -0.504479 8.060184 -4.141770 2.523113
RightUpLeg -3.510719 -3.615232 -1.229339
RightLeg 2.666435 -0.000000 -0.000000
RightFoot -12.412988 -3.084420 2.191062
RightToeBase 5.680494 -0.000000 -0.000000
LeftUpLeg -2.771903 4.942221 1.172569
LeftLeg 3.669103 -0.000000 -0.000000
LeftFoot -11.636480 3.323721 -10.186380
LeftToeBase 8.447066 -0.000000 -0.000000
Spine -7.975065 -3.310412 -2.608900
RightShoulder 5.256419 35.252417 -40.144243
RightArm 92.018526 -26.209587 59.711573
RightForeArm -2.809279 -0.000000 67.546670
RightHand 10.117952 -0.000000 -8.150139
RightHandThumb1 -24.326973 -0.000000 -32.862282
LeftShoulder -0.893302 -16.489737 23.928813
LeftArm 38.829170 36.257641 -91.919032
LeftForeArm -53.400520 -0.000000 93.231647
LeftHand 2.452861 -0.000000 -17.106841
LeftHandThumb1 -26.253704 0.000000 33.147579
Head -15.090861 5.117903 3.120067
1785
root -3.311803 33.154232 -0.496897 8.026055 -4.017934 2.513211
RightUpLeg -3.434415 -3.688418 -1.210131
RightLeg 2.651769 -0.000000 -0.000000
RightFoot -12.399657 -3.111134 2.194041
RightToeBase 5.656017 -0.000000 -0.000000
LeftUpLeg -2.754477 4.864908 1.200130
LeftLeg 3.690396 -0.000000 -0.000000
LeftFoot -11.630174 3.293809 -10.175313
LeftToeBase 8.438892 -0.000000 -0.000000
Spine -8.042156 -3.059565 -2.631669
RightShoulder 5.270767 35.117463 -40.195807
RightArm 92.596368 -26.339583 59.097627
RightForeArm -3.009420 -0.000000 67.752714
RightHand 10.235401 -0.000000 -8.218120
RightHandThumb1 -24.326973 -0.000000 -32.862282
LeftShoulder -0.602866 -16.503876 23.792709
LeftArm 38.378576 35.847527 -92.108595
LeftForeArm -53.741183 0.000000 94.092128
LeftHand 2.621633 -0.000000 -17.089993
LeftHandThumb1 -26.253704 0.000000 33.147579
Head -14.870775 4.737516 3.194160
1786
root -3.312991 33.153407 -0.491190 7.997091 -3.885471 2.508597
RightUpLeg -3.372645 -3.761528 -1.192931
RightLeg 2.652201 -0.000000 -0.000000
RightFoot -12.420829 -3.151358 2.215176
RightToeBase 5.664700 -0.000000 -0.000000
LeftUpLeg -2.754080 4.792069 1.221218
LeftLeg 3.729317 -0.000000 -0.000000
LeftFoot -11.656710 3.271035 -10.080813
LeftToeBase 8.520849 -0.000000 -0.000000
Spine -8.082387 -2.806157 -2.659397
RightShoulder 5.269043 35.056072 -40.290107
RightArm 93.096537 -26.504303 58.558903
RightForeArm -3.086434 -0.000000 67.956249
RightHand 10.298064 0.000000 -7.970223
RightHandThumb1 -24.326973 -0.000000 -32.862282
LeftShoulder -0.389354 -16.570621 23.690762
LeftArm 37.933405 35.489111 -92.320440
LeftForeArm -54.243464 -0.000000 94.840712
LeftHand 3.013624 -0.000000 -17.374774
LeftHandThumb1 -26.253704 0.000000 33.147579
Head -14.738639 4.381310 3.260249
1787
root -3.315848 33.153625 -0.484195 7.986217 -3.742301 2.507822
RightUpLeg -3.321125 -3.824361 -1.176446
RightLeg 2.646295 -0.000000 -0.000000
RightFoot -12.440000 -3.204406 2.232568
RightToeBase 5.637076 -0.000000 -0.000000
LeftUpLeg -2.766275 4.701123 1.242989
LeftLeg 3.753997 -0.000000 -0.000000
LeftFoot -11.649368 3.236608 -10.059757
LeftToeBase 8.470902 -0.000000 -0.000000
Spine -8.157976 -2.912710 -2.594109
RightShoulder 5.615093 35.281933 -40.270753
RightArm 93.536316 -26.694751 58.106761
RightForeArm -3.140447 -0.000000 68.027586
RightHand 10.485630 -0.000000 -7.822047
RightHandThumb1 -24.326973 -0.000000 -32.862282
LeftShoulder -0.590858 -16.232349 23.581492
LeftArm 37.832844 35.185357 -92.249765
LeftForeArm -54.666198 -0.000000 95.445836
LeftHand 3.499894 -0.000000 -17.977905
LeftHandThumb1 -26.253704 0.000000 33.147579
Head -14.574685 4.326812 3.182757
1788
root -3.319277 33.154706 -0.477552 7.960726 -3.591319 2.506523
RightUpLeg -3.255516 -3.903667 -1.158413
RightLeg 2.639173 -0.000000 -0.000000
RightFoot -12.439556 -3.252501 2.248508
RightToeBase 5.590455 -0.000000 -0.000000
LeftUpLeg -2.759481 4.596315 1.269077
LeftLeg 3.764334 -0.000000 -0.000000
LeftFoot -11.619307 3.191551 -10.096044
LeftToeBase 8.389181 -0.000000 -0.000000
Spine -8.221196 -3.018897 -2.540922
RightShoulder 6.008023 35.614557 -40.198132
RightArm 93.813193 -26.934018 57.720715
RightForeArm -3.346467 -0.000000 68.109962
RightHand 10.413851 -0.000000 -7.675898
RightHandThumb1 -24.326973 -0.000000 -32.862282
LeftShoulder -0.761560 -15.765514 23.441433
LeftArm 37.940681 34.929388 -92.023294
LeftForeArm -54.889993 -0.000000 96.002568
LeftHand 3.921759 0.000000 -18.441425
LeftHandThumb1 -26.253704 0.000000 33.147579
Head -14.415645 4.271837 3.143651
